<svg xmlns="http://www.w3.org/2000/svg" viewBox="0 0 80 64" width="80" height="64">
  <path d="m14.2256217 50.428654c-10.86180797-5.7652261-16.40062923-18.1874704-13.43001216-30.1202881 2.97061706-11.93281774 13.68696076-20.3083659 25.98398086-20.3083659h52.1574845l-7.5935552 7.60020458h-44.5506306c-9.2548692-.00689042-17.19423642 6.59703912-18.87290598 15.69839722-1.67866957 9.1013581 3.38236138 18.1031025 12.03072708 21.3983144z" fill="#101d51"/>
  <path d="m.66760143 64 7.58690589-7.6002316h44.55063058c9.2729192.0259909 17.2360003-6.5867855 18.9139154-15.7066707 1.6779151-9.1198853-3.4100909-18.1338559-12.0850352-21.409989l5.7383872-5.7317378c10.8842301 5.7549156 16.441447 18.190218 13.468317 30.1378544s-13.710291 20.3281364-26.0222857 20.3107747z" fill="#007efa"/>
</svg>
