<?xml version="1.0" encoding="UTF-8"?> <svg xmlns="http://www.w3.org/2000/svg" height="64" viewBox="0 0 374 64" width="374"><g fill="none"><path d="m14.2256217 50.428654c-10.86180797-5.7652261-16.40062923-18.1874704-13.43001216-30.1202881 2.97061706-11.93281774 13.68696076-20.3083659 25.98398086-20.3083659h52.1574845l-7.5935552 7.60020458h-44.5506306c-9.2548692-.00689042-17.19423642 6.59703912-18.87290598 15.69839722-1.67866957 9.1013581 3.38236138 18.1031025 12.03072708 21.3983144z" fill="#101d51"></path><path d="m.66760143 64 7.58690589-7.6002316h44.55063058c9.2729192.0259909 17.2360003-6.5867855 18.9139154-15.7066707 1.6779151-9.1198853-3.4100909-18.1338559-12.0850352-21.409989l5.7383872-5.7317378c10.8842301 5.7549156 16.441447 18.190218 13.468317 30.1378544s-13.710291 20.3281364-26.0222857 20.3107747z" fill="#007efa"></path><g fill="#101d51"><path d="m103.286987 55.7281843v-47.48964232h7.367477v40.76715162h20.386901v6.7224907z"></path><path d="m150.324473 56.3798236c-11.104411 0-18.564979-7.1812989-18.564979-17.8601515 0-9.9740218 7.314283-17.853499 16.62337-17.9532392 8.896827 0 14.362591 5.1731926 15.406539 14.5687211v5.1000498h-24.569341c.711481 6.1639454 4.448414 9.3423337 11.124359 9.4553726 3.107458.0434915 6.187642-.5847934 9.029815-1.8418693l1.190233-.5518959 1.682285 6.3368285-.844467.3790128c-3.48408 1.5622714-7.259502 2.3690242-11.077814 2.3671711zm5.897972-22.9003572c-.664935-3.8167257-3.597297-6.2237896-7.773088-6.2237896-4.568102 0-7.314282 3.0121546-8.537762 6.2237896z"></path><path d="m183.777342 56.3798204c-9.355632 0-16.689863-7.8728279-16.689863-17.9532392s7.613504-17.9199925 17.341499-17.9199925c3.232725-.1065733 6.426321.7322657 9.189399 2.4137133v-1.7354798h7.367478v34.5766088h-7.367478v-2.6530898c-2.806096 2.1905425-6.281948 3.3460284-9.841035 3.2714792zm1.296623-29.1174942c-5.851426 0-10.638956 5.0269069-10.638956 11.1975017 0 6.0708546 4.860673 11.2041511 10.638956 11.2041511 2.779428 0 6.489764-.8112204 8.544412-4.6146474v-15.1272663c-2.482125-1.7941477-5.482511-2.7281202-8.544412-2.6597391z"></path><path d="m221.306262 56.3798204c-9.355633 0-16.689864-7.8728279-16.689864-17.9532392s7.613504-17.9199925 17.3415-17.9199925c2.979687-.0964327 5.937211.5430321 8.610905 1.8618174v-14.12986412h7.367478v47.48964232h-7.367478v-2.14109c-2.718338 1.8790343-5.958585 2.8559934-9.262541 2.7927261zm1.296622-29.1174942c-5.851426 0-10.638956 5.0269069-10.638956 11.1975017 0 6.0708546 4.860673 11.2041511 10.638956 11.2041511 2.44696 0 5.778284-.6649347 7.979218-3.6504919v-17.0023825c-2.482375-1.2104622-5.218122-1.8100469-7.979218-1.7487784z"></path><path d="m258.855129 30.6202468c-6.795634-2.2009341-9.501918-4.6545435-9.501918-8.3449315 0-5.3726731 4.27553-7.9792174 8.87023-7.9792174 3.138996.0010895 6.248926.6014098 9.162801 1.7687265l3.517505-3.517505c-3.988972-1.7937256-8.306771-2.74015448-12.680306-2.77942742-7.314283 0-14.043423 4.07605022-14.043423 12.48747522 0 6.9884646 6.469816 10.8051903 13.132462 12.6803064 6.928621 1.9416095 9.515217 4.4018682 9.515217 8.5444119 0 5.8248288-4.654544 8.3449316-9.515217 8.3449316-3.350966-.0149533-6.673934-.6111528-9.821087-1.7620772l-3.504206 3.5108557c4.216539 1.762244 8.72939 2.7076862 13.298696 2.7860767 7.573607 0 14.688409-3.9896087 14.688409-12.8797868-.013299-7.2943345-6.130699-10.5924111-13.119163-12.8598387z"></path><path d="m277.280472 10.4328268h5.179842v17.1486681l.385662.1263376c2.400414-2.9124144 6.536309-4.9803616 11.842488-4.9803616 6.409972 0 11.716151 4.5946994 11.716151 13.591267v19.4094464h-5.186491v-19.4094464c0-6.3434778-3.497557-9.0564117-7.832932-9.0564117-4.468362 0-8.644152 1.9948043-10.938177 6.0841532v22.3817049h-5.166543z"></path><path d="m316.997026 9.97402176c1.7332-.0182629 3.153058 1.37193314 3.171386 3.10513174.018328 1.7331987-1.371815 3.1531091-3.105013 3.1715017s-3.153161-1.3716973-3.171618-3.1048945c.003151-1.7246186 1.381081-3.1320539 3.105245-3.17173894zm-2.520102 13.39178654h5.173192v32.362376h-5.173192z"></path></g><path d="m373.317003 25.6398853h-5.838128l-4.528206 4.5282059h5.838128z" fill="#007efa"></path><path d="m366.867135 50.6813293c-1.636057.6354644-3.386572.9230653-5.139946.8444671-3.431063 0-5.824828-1.9416095-5.824828-6.4698154v-14.8878898h7.021711l4.528206-4.5282059h-11.52332v-12.520722h-5.173193v12.520722h-16.20446v-6.1506468c0-4.3952189 2.074596-7.1148022 5.824828-7.1148022 1.209328-.0110225 2.417348.0824155 3.610596.2792726l3.444362-3.45101149c-2.229535-.94256054-4.635274-1.39604586-7.054958-1.32986956-6.649347 0-10.998021 4.59469935-10.998021 11.64300805v6.1506468h-3.218284v4.5282059h3.218284v25.5334957h5.173193v-25.5600931h16.20446v14.8878898c0 7.0483087 4.721037 10.9980213 10.998022 10.9980213 2.210822.0592005 4.405167-.3960578 6.409971-1.3298696z" fill="#101d51"></path></g></svg> 